HIERARCHY
ROOT Hips
{
	OFFSET 0.000000 0.000000 0.000000
	CHANNELS 6 Xposition Yposition Zposition Zrotation Yrotation Xrotation 
	JOINT LHipJoint
	{
		OFFSET 0.000000 0.000000 0.000000
		CHANNELS 3 Zrotation Yrotation Xrotation
		JOINT LeftUpLeg
		{
			OFFSET 1.363060 -1.794630 0.839290
			CHANNELS 3 Zrotation Yrotation Xrotation
			JOINT LeftLeg
			{
				OFFSET 2.448110 -6.726130 0.000000
				CHANNELS 3 Zrotation Yrotation Xrotation
				JOINT LeftFoot
				{
					OFFSET 2.562200 -7.039590 0.000000
					CHANNELS 3 Zrotation Yrotation Xrotation
					JOINT LeftToeBase
					{
						OFFSET 0.157640 -0.433110 2.322550
						CHANNELS 3 Zrotation Yrotation Xrotation
						End Site
						{
							OFFSET 0.000000 0.000000 0.000000
						}
					}
				}
			}
		}
	}
	JOINT RHipJoint
	{
		OFFSET 0.000000 0.000000 0.000000
		CHANNELS 3 Zrotation Yrotation Xrotation
		JOINT RightUpLeg
		{
			OFFSET -1.305520 -1.794630 0.839290
			CHANNELS 3 Zrotation Yrotation Xrotation
			JOINT RightLeg
			{
				OFFSET -2.542530 -6.985550 0.000000
				CHANNELS 3 Zrotation Yrotation Xrotation
				JOINT RightFoot
				{
					OFFSET -2.568260 -7.056230 0.000000
					CHANNELS 3 Zrotation Yrotation Xrotation
					JOINT RightToeBase
					{
						OFFSET -0.164730 -0.452590 2.363150
						CHANNELS 3 Zrotation Yrotation Xrotation
						End Site
						{
							OFFSET 0.000000 0.000000 0.000000
						}
					}
				}
			}
		}
	}
	JOINT LowerBack
	{
		OFFSET 0.000000 0.000000 0.000000
		CHANNELS 3 Zrotation Yrotation Xrotation
		JOINT Spine
		{
			OFFSET 0.028270 2.035590 -0.193380
			CHANNELS 3 Zrotation Yrotation Xrotation
			JOINT Spine1
			{
				OFFSET 0.056720 2.048850 -0.042750
				CHANNELS 3 Zrotation Yrotation Xrotation
				JOINT Neck
				{
					OFFSET 0.000000 0.000000 0.000000
					CHANNELS 3 Zrotation Yrotation Xrotation
					JOINT Neck1
					{
						OFFSET -0.054170 1.746240 0.172020
						CHANNELS 3 Zrotation Yrotation Xrotation
						JOINT Head
						{
							OFFSET 0.104070 1.761360 -0.123970
							CHANNELS 3 Zrotation Yrotation Xrotation
							End Site
							{
								OFFSET 0.000000 0.000000 0.000000
							}
						}
					}
				}
				JOINT LeftShoulder
				{
					OFFSET 0.000000 0.000000 0.000000
					CHANNELS 3 Zrotation Yrotation Xrotation
					JOINT LeftArm
					{
						OFFSET 3.362410 1.200890 -0.311210
						CHANNELS 3 Zrotation Yrotation Xrotation
						JOINT LeftForeArm
						{
							OFFSET 4.983000 -0.000000 -0.000000
							CHANNELS 3 Zrotation Yrotation Xrotation
							JOINT LeftHand
							{
								OFFSET 3.483560 -0.000000 -0.000000
								CHANNELS 3 Zrotation Yrotation Xrotation
								JOINT LeftFingerBase
								{
									OFFSET 0.000000 0.000000 0.000000
									CHANNELS 3 Zrotation Yrotation Xrotation
									JOINT LeftHandIndex1
									{
										OFFSET 0.715260 -0.000000 -0.000000
										CHANNELS 3 Zrotation Yrotation Xrotation
										End Site
										{
											OFFSET 0.000000 0.000000 0.000000
										}
									}
								}
								JOINT LThumb
								{
									OFFSET 0.000000 0.000000 0.000000
									CHANNELS 3 Zrotation Yrotation Xrotation
									End Site
									{
										OFFSET 0.000000 0.000000 0.000000
									}
								}
							}
						}
					}
				}
				JOINT RightShoulder
				{
					OFFSET 0.000000 0.000000 0.000000
					CHANNELS 3 Zrotation Yrotation Xrotation
					JOINT RightArm
					{
						OFFSET -3.136600 1.374050 -0.404650
						CHANNELS 3 Zrotation Yrotation Xrotation
						JOINT RightForeArm
						{
							OFFSET -5.241900 -0.000000 -0.000000
							CHANNELS 3 Zrotation Yrotation Xrotation
							JOINT RightHand
							{
								OFFSET -3.444170 -0.000000 -0.000000
								CHANNELS 3 Zrotation Yrotation Xrotation
								JOINT RightFingerBase
								{
									OFFSET 0.000000 0.000000 0.000000
									CHANNELS 3 Zrotation Yrotation Xrotation
									JOINT RightHandIndex1
									{
										OFFSET -0.622530 -0.000000 -0.000000
										CHANNELS 3 Zrotation Yrotation Xrotation
										End Site
										{
											OFFSET 0.000000 0.000000 0.000000
										}
									}
								}
								JOINT RThumb
								{
									OFFSET 0.000000 0.000000 0.000000
									CHANNELS 3 Zrotation Yrotation Xrotation
									End Site
									{
										OFFSET 0.000000 0.000000 0.000000
									}
								}
							}
						}
					}
				}
			}
		}
	}
}
MOTION
Frames: 4
Frame Time: 0.033333
-0.007237 17.004401 -0.165944 6.211487 27.066742 4.549477 6.458682 23.162378 4.959775 -37.962541 -46.107374 -10.387651 -20.338144 -18.254927 58.545569 -0.734890 -32.795258 43.624698 0.000000 0.000000 0.000000 -3.181350 -25.292473 10.339310 13.541267 9.944927 -17.817477 0.346340 -9.853824 29.093457 0.154259 6.997906 -25.164868 0.000000 0.000000 0.000000 5.329022 2.713119 -9.273436 -8.992396 4.044372 46.242051 -7.924874 -0.218639 -35.523730 12.589245 -0.159109 -15.365989 0.616091 -0.096839 5.938848 0.000000 0.000000 0.000000 -13.802857 10.992088 7.682040 -59.261329 -4.894442 -1.319372 -22.881697 8.608320 -0.073354 -1.279489 -1.916213 -0.036692 -1.278999 -1.916691 0.000000 0.000000 0.000000 0.000000 0.000000 0.000000 0.000000 -8.312571 -17.546666 4.660328 79.416231 -5.654279 10.559716 170.406305 73.934506 -179.949718 -4.016406 7.619129 0.022424 -4.051894 7.607719 0.000000 0.000000 0.000000 0.000000 0.000000 0.000000 0.000000 
-0.014781 17.001655 -0.161159 6.198234 27.260054 4.659037 6.663918 22.906268 4.773589 -38.385336 -46.073913 -9.924080 -20.142585 -18.567980 58.305634 -0.807651 -33.102447 43.176807 0.000000 0.000000 0.000000 -3.101854 -25.225511 10.122086 13.642588 9.931574 -17.787051 0.180370 -9.987254 29.352338 0.179793 6.848052 -25.196808 0.000000 0.000000 0.000000 5.107909 2.669890 -8.742931 -8.710360 3.864480 45.276481 -8.061380 -0.178235 -35.138714 12.599147 -0.188874 -15.217439 0.579897 -0.102400 6.026567 0.000000 0.000000 0.000000 -13.730712 10.980198 7.633329 -59.251888 -4.981707 -1.340486 -23.027741 8.607136 -0.074131 -1.289302 -1.932473 -0.037081 -1.288797 -1.932962 0.000000 0.000000 0.000000 0.000000 0.000000 0.000000 0.000000 -8.490450 -17.431578 4.624754 79.774473 -5.110744 10.048995 169.879462 73.400230 -179.956794 -3.983527 7.330844 0.018975 -4.017565 7.319822 0.000000 0.000000 0.000000 0.000000 0.000000 0.000000 0.000000 
-0.021144 16.998741 -0.155464 6.174089 27.444657 4.776410 6.840067 22.669908 4.573174 -38.762912 -46.023854 -9.512078 -19.944931 -18.835848 58.101256 -0.861448 -33.366094 42.765971 0.000000 0.000000 0.000000 -3.010852 -25.158724 9.915302 13.729648 9.918792 -17.770105 0.038258 -10.115338 29.586927 0.205569 6.708081 -25.235827 0.000000 0.000000 0.000000 4.894373 2.626045 -8.198233 -8.420211 3.679596 44.240949 -8.210298 -0.138893 -34.715483 12.612201 -0.216998 -15.023813 0.551293 -0.106682 6.105287 0.000000 0.000000 0.000000 -13.674367 10.969468 7.584327 -59.218327 -5.067448 -1.360950 -23.169696 8.607176 -0.074918 -1.299341 -1.948238 -0.037474 -1.298820 -1.948737 0.000000 0.000000 0.000000 0.000000 0.000000 0.000000 0.000000 -8.668967 -17.320863 4.595116 80.144818 -4.536173 9.526107 169.352779 72.881120 -179.963733 -3.940534 7.031082 0.015596 -3.973061 7.020497 0.000000 0.000000 0.000000 0.000000 0.000000 0.000000 0.000000 
-0.026363 16.995761 -0.149242 6.139518 27.619900 4.902004 6.989267 22.453237 4.359603 -39.096369 -45.960729 -9.150711 -19.749500 -19.061140 57.929530 -0.899549 -33.588210 42.394316 0.000000 0.000000 0.000000 -2.909430 -25.092647 9.718479 13.803618 9.906377 -17.766604 -0.080304 -10.237010 29.794931 0.230930 6.578732 -25.280297 0.000000 0.000000 0.000000 4.687893 2.581395 -7.639266 -8.120825 3.489862 43.133094 -8.372424 -0.100303 -34.251619 12.628087 -0.243303 -14.783806 0.530859 -0.109650 6.174156 0.000000 0.000000 0.000000 -13.633419 10.959745 7.534914 -59.161169 -5.151819 -1.380934 -23.307515 8.608231 -0.075718 -1.309579 -1.963515 -0.037875 -1.309045 -1.964025 0.000000 0.000000 0.000000 0.000000 0.000000 0.000000 0.000000 -8.848664 -17.213881 4.571642 80.527712 -3.928932 8.992943 168.826208 72.380445 -179.970475 -3.886955 6.720753 0.012317 -3.917923 6.710653 0.000000 0.000000 0.000000 0.000000 0.000000 0.000000 0.000000 
